<svg width="1400" height="156" viewBox="0 0 1400 156" fill="none" xmlns="http://www.w3.org/2000/svg">
<rect x="64.634" y="95.728" width="28.0697" height="35.2718" fill="#7340FF"/>
<rect y="25" width="28.0697" height="35.2718" fill="#7340FF"/>
<path d="M27.5157 131H0.92334V95.7289L64.8188 52.8063L65.9268 25H92.7038L91.7805 63.0704L27.5157 104.873V131Z" fill="#7340FF"/>
<path d="M176.456 124V110.56L175.176 107.616V83.552C175.176 79.2853 173.853 75.9573 171.208 73.568C168.648 71.1787 164.68 69.984 159.304 69.984C155.635 69.984 152.008 70.5813 148.424 71.776C144.925 72.8853 141.939 74.4213 139.464 76.384L132.296 62.432C136.051 59.7867 140.573 57.7387 145.864 56.288C151.155 54.8373 156.531 54.112 161.992 54.112C172.488 54.112 180.637 56.5867 186.44 61.536C192.243 66.4853 195.144 74.208 195.144 84.704V124H176.456ZM155.464 125.024C150.088 125.024 145.48 124.128 141.64 122.336C137.8 120.459 134.856 117.941 132.808 114.784C130.76 111.627 129.736 108.085 129.736 104.16C129.736 100.064 130.717 96.48 132.68 93.408C134.728 90.336 137.928 87.9467 142.28 86.24C146.632 84.448 152.307 83.552 159.304 83.552H177.608V95.2H161.48C156.787 95.2 153.544 95.968 151.752 97.504C150.045 99.04 149.192 100.96 149.192 103.264C149.192 105.824 150.173 107.872 152.136 109.408C154.184 110.859 156.957 111.584 160.456 111.584C163.784 111.584 166.771 110.816 169.416 109.28C172.061 107.659 173.981 105.312 175.176 102.24L178.248 111.456C176.797 115.893 174.152 119.264 170.312 121.568C166.472 123.872 161.523 125.024 155.464 125.024ZM225.12 124V111.968L265.824 63.84L269.28 70.496H226.016V55.136H285.408V67.168L244.704 115.296L241.12 108.64H286.56V124H225.12ZM349.297 125.024C341.446 125.024 334.534 123.488 328.561 120.416C322.673 117.344 318.108 113.163 314.865 107.872C311.622 102.496 310.001 96.3947 310.001 89.568C310.001 82.656 311.58 76.5547 314.737 71.264C317.98 65.888 322.374 61.7067 327.921 58.72C333.468 55.648 339.74 54.112 346.737 54.112C353.478 54.112 359.537 55.5627 364.913 58.464C370.374 61.28 374.684 65.376 377.841 70.752C380.998 76.0427 382.577 82.4 382.577 89.824C382.577 90.592 382.534 91.488 382.449 92.512C382.364 93.4507 382.278 94.3467 382.193 95.2H326.257V83.552H371.697L364.017 87.008C364.017 83.424 363.292 80.3093 361.841 77.664C360.39 75.0187 358.385 72.9707 355.825 71.52C353.265 69.984 350.278 69.216 346.865 69.216C343.452 69.216 340.422 69.984 337.777 71.52C335.217 72.9707 333.212 75.0613 331.761 77.792C330.31 80.4373 329.585 83.5947 329.585 87.264V90.336C329.585 94.0907 330.396 97.4187 332.017 100.32C333.724 103.136 336.07 105.312 339.057 106.848C342.129 108.299 345.713 109.024 349.809 109.024C353.478 109.024 356.678 108.469 359.409 107.36C362.225 106.251 364.785 104.587 367.089 102.368L377.713 113.888C374.556 117.472 370.588 120.245 365.809 122.208C361.03 124.085 355.526 125.024 349.297 125.024ZM440.671 125.024C432.564 125.024 426.25 122.976 421.727 118.88C417.204 114.699 414.943 108.512 414.943 100.32V39.904H434.911V100.064C434.911 102.965 435.679 105.227 437.215 106.848C438.751 108.384 440.842 109.152 443.487 109.152C446.644 109.152 449.332 108.299 451.551 106.592L456.927 120.672C454.879 122.123 452.404 123.232 449.503 124C446.687 124.683 443.743 125.024 440.671 125.024ZM404.319 72.032V56.672H452.063V72.032H404.319ZM525.48 125.024C519.677 125.024 514.6 123.744 510.248 121.184C505.896 118.624 502.483 114.741 500.008 109.536C497.619 104.245 496.424 97.5893 496.424 89.568C496.424 81.4613 497.576 74.8053 499.88 69.6C502.184 64.3947 505.512 60.512 509.864 57.952C514.216 55.392 519.421 54.112 525.48 54.112C531.965 54.112 537.768 55.6053 542.888 58.592C548.093 61.4933 552.189 65.5893 555.176 70.88C558.248 76.1707 559.784 82.4 559.784 89.568C559.784 96.8213 558.248 103.093 555.176 108.384C552.189 113.675 548.093 117.771 542.888 120.672C537.768 123.573 531.965 125.024 525.48 125.024ZM484.776 148.832V55.136H503.848V69.216L503.464 89.696L504.744 110.048V148.832H484.776ZM522.024 108.64C525.352 108.64 528.296 107.872 530.856 106.336C533.501 104.8 535.592 102.624 537.128 99.808C538.749 96.9067 539.56 93.4933 539.56 89.568C539.56 85.5573 538.749 82.144 537.128 79.328C535.592 76.512 533.501 74.336 530.856 72.8C528.296 71.264 525.352 70.496 522.024 70.496C518.696 70.496 515.709 71.264 513.064 72.8C510.419 74.336 508.328 76.512 506.792 79.328C505.256 82.144 504.488 85.5573 504.488 89.568C504.488 93.4933 505.256 96.9067 506.792 99.808C508.328 102.624 510.419 104.8 513.064 106.336C515.709 107.872 518.696 108.64 522.024 108.64ZM622.559 125.024C615.22 125.024 608.692 123.488 602.975 120.416C597.343 117.344 592.863 113.163 589.535 107.872C586.292 102.496 584.671 96.3947 584.671 89.568C584.671 82.656 586.292 76.5547 589.535 71.264C592.863 65.888 597.343 61.7067 602.975 58.72C608.692 55.648 615.22 54.112 622.559 54.112C629.812 54.112 636.298 55.648 642.015 58.72C647.732 61.7067 652.212 65.8453 655.455 71.136C658.698 76.4267 660.319 82.5707 660.319 89.568C660.319 96.3947 658.698 102.496 655.455 107.872C652.212 113.163 647.732 117.344 642.015 120.416C636.298 123.488 629.812 125.024 622.559 125.024ZM622.559 108.64C625.887 108.64 628.874 107.872 631.519 106.336C634.164 104.8 636.255 102.624 637.791 99.808C639.327 96.9067 640.095 93.4933 640.095 89.568C640.095 85.5573 639.327 82.144 637.791 79.328C636.255 76.512 634.164 74.336 631.519 72.8C628.874 71.264 625.887 70.496 622.559 70.496C619.231 70.496 616.244 71.264 613.599 72.8C610.954 74.336 608.82 76.512 607.199 79.328C605.663 82.144 604.895 85.5573 604.895 89.568C604.895 93.4933 605.663 96.9067 607.199 99.808C608.82 102.624 610.954 104.8 613.599 106.336C616.244 107.872 619.231 108.64 622.559 108.64ZM690.306 124V55.136H709.378V74.592L706.69 68.96C708.738 64.096 712.023 60.4267 716.546 57.952C721.069 55.392 726.573 54.112 733.058 54.112V72.544C732.205 72.4587 731.437 72.416 730.754 72.416C730.071 72.3307 729.346 72.288 728.578 72.288C723.117 72.288 718.679 73.8667 715.266 77.024C711.938 80.096 710.274 84.9173 710.274 91.488V124H690.306ZM792.106 125.024C783.999 125.024 777.685 122.976 773.162 118.88C768.639 114.699 766.378 108.512 766.378 100.32V39.904H786.346V100.064C786.346 102.965 787.114 105.227 788.65 106.848C790.186 108.384 792.277 109.152 794.922 109.152C798.079 109.152 800.767 108.299 802.986 106.592L808.362 120.672C806.314 122.123 803.839 123.232 800.938 124C798.122 124.683 795.178 125.024 792.106 125.024ZM755.754 72.032V56.672H803.498V72.032H755.754ZM866.854 125.024C859.515 125.024 852.987 123.488 847.27 120.416C841.638 117.344 837.158 113.163 833.83 107.872C830.587 102.496 828.966 96.3947 828.966 89.568C828.966 82.656 830.587 76.5547 833.83 71.264C837.158 65.888 841.638 61.7067 847.27 58.72C852.987 55.648 859.515 54.112 866.854 54.112C874.107 54.112 880.593 55.648 886.31 58.72C892.027 61.7067 896.507 65.8453 899.75 71.136C902.993 76.4267 904.614 82.5707 904.614 89.568C904.614 96.3947 902.993 102.496 899.75 107.872C896.507 113.163 892.027 117.344 886.31 120.416C880.593 123.488 874.107 125.024 866.854 125.024ZM866.854 108.64C870.182 108.64 873.169 107.872 875.814 106.336C878.459 104.8 880.55 102.624 882.086 99.808C883.622 96.9067 884.39 93.4933 884.39 89.568C884.39 85.5573 883.622 82.144 882.086 79.328C880.55 76.512 878.459 74.336 875.814 72.8C873.169 71.264 870.182 70.496 866.854 70.496C863.526 70.496 860.539 71.264 857.894 72.8C855.249 74.336 853.115 76.512 851.494 79.328C849.958 82.144 849.19 85.5573 849.19 89.568C849.19 93.4933 849.958 96.9067 851.494 99.808C853.115 102.624 855.249 104.8 857.894 106.336C860.539 107.872 863.526 108.64 866.854 108.64ZM937.033 124V53.6C937.033 45.8347 939.337 39.648 943.945 35.04C948.553 30.3467 955.124 28 963.657 28C966.558 28 969.332 28.2987 971.977 28.896C974.708 29.4933 977.012 30.432 978.889 31.712L973.641 46.176C972.532 45.408 971.294 44.8107 969.929 44.384C968.564 43.9573 967.113 43.744 965.577 43.744C962.676 43.744 960.414 44.5973 958.793 46.304C957.257 47.9253 956.489 50.4 956.489 53.728V60.128L957.001 68.704V124H937.033ZM926.409 72.032V56.672H974.153V72.032H926.409ZM1032.63 125.024C1025.3 125.024 1018.77 123.488 1013.05 120.416C1007.42 117.344 1002.94 113.163 999.61 107.872C996.367 102.496 994.746 96.3947 994.746 89.568C994.746 82.656 996.367 76.5547 999.61 71.264C1002.94 65.888 1007.42 61.7067 1013.05 58.72C1018.77 55.648 1025.3 54.112 1032.63 54.112C1039.89 54.112 1046.37 55.648 1052.09 58.72C1057.81 61.7067 1062.29 65.8453 1065.53 71.136C1068.77 76.4267 1070.39 82.5707 1070.39 89.568C1070.39 96.3947 1068.77 102.496 1065.53 107.872C1062.29 113.163 1057.81 117.344 1052.09 120.416C1046.37 123.488 1039.89 125.024 1032.63 125.024ZM1032.63 108.64C1035.96 108.64 1038.95 107.872 1041.59 106.336C1044.24 104.8 1046.33 102.624 1047.87 99.808C1049.4 96.9067 1050.17 93.4933 1050.17 89.568C1050.17 85.5573 1049.4 82.144 1047.87 79.328C1046.33 76.512 1044.24 74.336 1041.59 72.8C1038.95 71.264 1035.96 70.496 1032.63 70.496C1029.31 70.496 1026.32 71.264 1023.67 72.8C1021.03 74.336 1018.9 76.512 1017.27 79.328C1015.74 82.144 1014.97 85.5573 1014.97 89.568C1014.97 93.4933 1015.74 96.9067 1017.27 99.808C1018.9 102.624 1021.03 104.8 1023.67 106.336C1026.32 107.872 1029.31 108.64 1032.63 108.64ZM1100.38 124V29.024H1120.35V124H1100.38ZM1155.52 124V55.136H1175.49V124H1155.52ZM1165.5 45.536C1161.84 45.536 1158.85 44.4693 1156.54 42.336C1154.24 40.2027 1153.09 37.5573 1153.09 34.4C1153.09 31.2427 1154.24 28.5973 1156.54 26.464C1158.85 24.3307 1161.84 23.264 1165.5 23.264C1169.17 23.264 1172.16 24.288 1174.46 26.336C1176.77 28.2987 1177.92 30.8587 1177.92 34.016C1177.92 37.344 1176.77 40.1173 1174.46 42.336C1172.25 44.4693 1169.26 45.536 1165.5 45.536ZM1243.43 125.024C1236.09 125.024 1229.56 123.488 1223.84 120.416C1218.21 117.344 1213.73 113.163 1210.4 107.872C1207.16 102.496 1205.54 96.3947 1205.54 89.568C1205.54 82.656 1207.16 76.5547 1210.4 71.264C1213.73 65.888 1218.21 61.7067 1223.84 58.72C1229.56 55.648 1236.09 54.112 1243.43 54.112C1250.68 54.112 1257.17 55.648 1262.88 58.72C1268.6 61.7067 1273.08 65.8453 1276.32 71.136C1279.57 76.4267 1281.19 82.5707 1281.19 89.568C1281.19 96.3947 1279.57 102.496 1276.32 107.872C1273.08 113.163 1268.6 117.344 1262.88 120.416C1257.17 123.488 1250.68 125.024 1243.43 125.024ZM1243.43 108.64C1246.76 108.64 1249.74 107.872 1252.39 106.336C1255.03 104.8 1257.12 102.624 1258.66 99.808C1260.2 96.9067 1260.96 93.4933 1260.96 89.568C1260.96 85.5573 1260.2 82.144 1258.66 79.328C1257.12 76.512 1255.03 74.336 1252.39 72.8C1249.74 71.264 1246.76 70.496 1243.43 70.496C1240.1 70.496 1237.11 71.264 1234.47 72.8C1231.82 74.336 1229.69 76.512 1228.07 79.328C1226.53 82.144 1225.76 85.5573 1225.76 89.568C1225.76 93.4933 1226.53 96.9067 1228.07 99.808C1229.69 102.624 1231.82 104.8 1234.47 106.336C1237.11 107.872 1240.1 108.64 1243.43 108.64Z" fill="url(#paint0_linear_13_49)"/>
<path d="M1381.53 79.8244L1362.64 72.9246L1355.68 54.2378C1355.26 53.1313 1354.52 52.1763 1353.54 51.5017C1352.56 50.8272 1351.4 50.4655 1350.2 50.4655C1349.01 50.4655 1347.85 50.8272 1346.87 51.5017C1345.89 52.1763 1345.14 53.1313 1344.73 54.2378L1337.73 72.9246L1318.82 79.8027C1317.7 80.21 1316.73 80.9469 1316.05 81.914C1315.37 82.8811 1315 84.0319 1315 85.211C1315 86.3902 1315.37 87.5409 1316.05 88.508C1316.73 89.4752 1317.7 90.2121 1318.82 90.6194L1337.73 97.5409L1344.69 116.228C1345.1 117.334 1345.84 118.289 1346.82 118.964C1347.8 119.638 1348.97 120 1350.16 120C1351.35 120 1352.52 119.638 1353.5 118.964C1354.47 118.289 1355.22 117.334 1355.63 116.228L1362.64 97.5409L1381.55 90.6628C1382.66 90.2555 1383.63 89.5186 1384.31 88.5515C1385 87.5844 1385.36 86.4336 1385.36 85.2545C1385.36 84.0753 1385 82.9246 1384.31 81.9575C1383.63 80.9904 1382.66 80.2534 1381.55 79.8461L1381.53 79.8244ZM1359.34 92.5525C1358.94 92.6974 1358.58 92.9258 1358.28 93.2221C1357.98 93.5183 1357.75 93.8753 1357.6 94.2684L1350.18 114.139L1342.77 94.2829C1342.63 93.8856 1342.4 93.5249 1342.09 93.226C1341.79 92.927 1341.43 92.6972 1341.02 92.5525L1320.93 85.2328L1341.02 77.913C1341.43 77.7684 1341.79 77.5385 1342.09 77.2396C1342.4 76.9406 1342.63 76.5799 1342.77 76.1826L1350.18 56.3266L1357.59 76.1826C1357.73 76.5757 1357.97 76.9327 1358.27 77.229C1358.57 77.5252 1358.93 77.7536 1359.32 77.8985L1379.43 85.2328L1359.34 92.5525ZM1361.9 47.5842C1361.9 46.8161 1362.21 46.0795 1362.76 45.5364C1363.31 44.9933 1364.06 44.6881 1364.83 44.6881H1370.69V38.896C1370.69 38.128 1371 37.3913 1371.55 36.8482C1372.1 36.3051 1372.85 36 1373.63 36C1374.4 36 1375.15 36.3051 1375.7 36.8482C1376.25 37.3913 1376.56 38.128 1376.56 38.896V44.6881H1382.42C1383.19 44.6881 1383.94 44.9933 1384.49 45.5364C1385.04 46.0795 1385.35 46.8161 1385.35 47.5842C1385.35 48.3523 1385.04 49.0889 1384.49 49.632C1383.94 50.1751 1383.19 50.4802 1382.42 50.4802H1376.56V56.2723C1376.56 57.0404 1376.25 57.777 1375.7 58.3201C1375.15 58.8632 1374.4 59.1684 1373.63 59.1684C1372.85 59.1684 1372.1 58.8632 1371.55 58.3201C1371 57.777 1370.69 57.0404 1370.69 56.2723V50.4802H1364.83C1364.06 50.4802 1363.31 50.1751 1362.76 49.632C1362.21 49.0889 1361.9 48.3523 1361.9 47.5842ZM1400 64.9604C1400 65.7285 1399.69 66.4651 1399.14 67.0083C1398.59 67.5514 1397.85 67.8565 1397.07 67.8565H1394.14V70.7525C1394.14 71.5206 1393.83 72.2572 1393.28 72.8003C1392.73 73.3435 1391.99 73.6486 1391.21 73.6486C1390.43 73.6486 1389.69 73.3435 1389.14 72.8003C1388.59 72.2572 1388.28 71.5206 1388.28 70.7525V67.8565H1385.35C1384.57 67.8565 1383.82 67.5514 1383.28 67.0083C1382.73 66.4651 1382.42 65.7285 1382.42 64.9604C1382.42 64.1924 1382.73 63.4557 1383.28 62.9126C1383.82 62.3695 1384.57 62.0644 1385.35 62.0644H1388.28V59.1684C1388.28 58.4003 1388.59 57.6637 1389.14 57.1205C1389.69 56.5774 1390.43 56.2723 1391.21 56.2723C1391.99 56.2723 1392.73 56.5774 1393.28 57.1205C1393.83 57.6637 1394.14 58.4003 1394.14 59.1684V62.0644H1397.07C1397.85 62.0644 1398.59 62.3695 1399.14 62.9126C1399.69 63.4557 1400 64.1924 1400 64.9604Z" fill="white"/>
<defs>
<linearGradient id="paint0_linear_13_49" x1="125" y1="78" x2="1286" y2="78" gradientUnits="userSpaceOnUse">
<stop stop-color="#713EFF"/>
<stop offset="1" stop-color="white"/>
</linearGradient>
</defs>
</svg>
